<svg width="463" height="310" viewBox="0 0 463 310" fill="none" xmlns="http://www.w3.org/2000/svg">
<mask id="path-1-outside-1_2_63" maskUnits="userSpaceOnUse" x="0" y="0" width="463" height="310" fill="black">
<rect fill="white" width="463" height="310"/>
<path d="M251.248 93.5734C251.248 135.311 217.384 169.147 175.61 169.147C133.836 169.147 99.9721 135.311 99.9721 93.5734C99.9721 51.8353 133.836 18 175.61 18C217.384 18 251.248 51.8353 251.248 93.5734Z"/>
<path d="M193.122 180.687C193.122 229.005 153.92 268.174 105.561 268.174C57.2024 268.174 18 229.005 18 180.687C18 132.37 57.2024 93.2011 105.561 93.2011C153.92 93.2011 193.122 132.37 193.122 180.687Z"/>
<path d="M329.494 204.514C329.494 252.831 290.291 292 241.933 292C193.574 292 154.372 252.831 154.372 204.514C154.372 156.196 193.574 117.027 241.933 117.027C290.291 117.027 329.494 156.196 329.494 204.514Z"/>
<path d="M445 192.601C445 234.339 411.136 268.174 369.362 268.174C327.588 268.174 293.724 234.339 293.724 192.601C293.724 150.863 327.588 117.027 369.362 117.027C411.136 117.027 445 150.863 445 192.601Z"/>
<path d="M377.932 93.5734C377.932 135.311 344.068 169.147 302.294 169.147C260.52 169.147 226.656 135.311 226.656 93.5734C226.656 51.8353 260.52 18 302.294 18C344.068 18 377.932 51.8353 377.932 93.5734Z"/>
</mask>
<path class="cloud-fill" d="M251.248 93.5734C251.248 135.311 217.384 169.147 175.61 169.147C133.836 169.147 99.9721 135.311 99.9721 93.5734C99.9721 51.8353 133.836 18 175.61 18C217.384 18 251.248 51.8353 251.248 93.5734Z" fill="#A9B9D9"/>
<path class="cloud-fill" d="M193.122 180.687C193.122 229.005 153.92 268.174 105.561 268.174C57.2024 268.174 18 229.005 18 180.687C18 132.37 57.2024 93.2011 105.561 93.2011C153.92 93.2011 193.122 132.37 193.122 180.687Z" fill="#A9B9D9"/>
<path class="cloud-fill" d="M329.494 204.514C329.494 252.831 290.291 292 241.933 292C193.574 292 154.372 252.831 154.372 204.514C154.372 156.196 193.574 117.027 241.933 117.027C290.291 117.027 329.494 156.196 329.494 204.514Z" fill="#A9B9D9"/>
<path class="cloud-fill" d="M445 192.601C445 234.339 411.136 268.174 369.362 268.174C327.588 268.174 293.724 234.339 293.724 192.601C293.724 150.863 327.588 117.027 369.362 117.027C411.136 117.027 445 150.863 445 192.601Z" fill="#A9B9D9"/>
<path class="cloud-fill" d="M377.932 93.5734C377.932 135.311 344.068 169.147 302.294 169.147C260.52 169.147 226.656 135.311 226.656 93.5734C226.656 51.8353 260.52 18 302.294 18C344.068 18 377.932 51.8353 377.932 93.5734Z" fill="#A9B9D9"/>
<path d="M233.248 93.5734C233.248 125.356 207.457 151.147 175.61 151.147V187.147C227.31 187.147 269.248 145.267 269.248 93.5734H233.248ZM175.61 151.147C143.763 151.147 117.972 125.356 117.972 93.5734H81.9721C81.9721 145.267 123.91 187.147 175.61 187.147V151.147ZM117.972 93.5734C117.972 61.7909 143.763 36 175.61 36V0C123.91 0 81.9721 41.8797 81.9721 93.5734H117.972ZM175.61 36C207.457 36 233.248 61.7909 233.248 93.5734H269.248C269.248 41.8797 227.31 0 175.61 0V36ZM175.122 180.687C175.122 219.049 143.993 250.174 105.561 250.174V286.174C163.846 286.174 211.122 238.961 211.122 180.687H175.122ZM105.561 250.174C67.1291 250.174 36 219.049 36 180.687H0C0 238.961 47.2758 286.174 105.561 286.174V250.174ZM36 180.687C36 142.326 67.1291 111.201 105.561 111.201V75.2011C47.2758 75.2011 0 122.414 0 180.687H36ZM105.561 111.201C143.993 111.201 175.122 142.326 175.122 180.687H211.122C211.122 122.414 163.846 75.2011 105.561 75.2011V111.201ZM311.494 204.514C311.494 242.875 280.365 274 241.933 274V310C300.218 310 347.494 262.787 347.494 204.514H311.494ZM241.933 274C203.501 274 172.372 242.875 172.372 204.514H136.372C136.372 262.787 183.648 310 241.933 310V274ZM172.372 204.514C172.372 166.152 203.501 135.027 241.933 135.027V99.0272C183.648 99.0272 136.372 146.241 136.372 204.514H172.372ZM241.933 135.027C280.365 135.027 311.494 166.152 311.494 204.514H347.494C347.494 146.241 300.218 99.0272 241.933 99.0272V135.027ZM427 192.601C427 224.383 401.209 250.174 369.362 250.174V286.174C421.062 286.174 463 244.294 463 192.601H427ZM369.362 250.174C337.515 250.174 311.724 224.383 311.724 192.601H275.724C275.724 244.294 317.662 286.174 369.362 286.174V250.174ZM311.724 192.601C311.724 160.818 337.515 135.027 369.362 135.027V99.0272C317.662 99.0272 275.724 140.907 275.724 192.601H311.724ZM369.362 135.027C401.209 135.027 427 160.818 427 192.601H463C463 140.907 421.062 99.0272 369.362 99.0272V135.027ZM359.932 93.5734C359.932 125.356 334.141 151.147 302.294 151.147V187.147C353.994 187.147 395.932 145.267 395.932 93.5734H359.932ZM302.294 151.147C270.447 151.147 244.656 125.356 244.656 93.5734H208.656C208.656 145.267 250.594 187.147 302.294 187.147V151.147ZM244.656 93.5734C244.656 61.7909 270.447 36 302.294 36V0C250.594 0 208.656 41.8797 208.656 93.5734H244.656ZM302.294 36C334.141 36 359.932 61.7909 359.932 93.5734H395.932C395.932 41.8797 353.994 0 302.294 0V36Z" fill="#D9C5D2" mask="url(#path-1-outside-1_2_63)"/>
</svg>
