<svg width="573" height="368" viewBox="0 0 573 368" fill="none" xmlns="http://www.w3.org/2000/svg">
<path d="M313 101.5C313 157.557 267.557 203 211.5 203C155.443 203 110 157.557 110 101.5C110 45.4431 155.443 0 211.5 0C267.557 0 313 45.4431 313 101.5Z" fill="#A9B9D9"/>
<path d="M235 218.5C235 283.393 182.393 336 117.5 336C52.6065 336 0 283.393 0 218.5C0 153.607 52.6065 101 117.5 101C182.393 101 235 153.607 235 218.5Z" fill="#A9B9D9"/>
<path d="M418 250.5C418 315.393 365.393 368 300.5 368C235.607 368 183 315.393 183 250.5C183 185.607 235.607 133 300.5 133C365.393 133 418 185.607 418 250.5Z" fill="#A9B9D9"/>
<path d="M573 234.5C573 290.557 527.557 336 471.5 336C415.443 336 370 290.557 370 234.5C370 178.443 415.443 133 471.5 133C527.557 133 573 178.443 573 234.5Z" fill="#A9B9D9"/>
<path d="M483 101.5C483 157.557 437.557 203 381.5 203C325.443 203 280 157.557 280 101.5C280 45.4431 325.443 0 381.5 0C437.557 0 483 45.4431 483 101.5Z" fill="#A9B9D9"/>
</svg>
